<?xml version="1.0" encoding="UTF-8" standalone="no"?>
<!-- Created with Inkscape (http://www.inkscape.org/) -->

<svg
   xmlns:dc="http://purl.org/dc/elements/1.1/"
   xmlns:cc="http://creativecommons.org/ns#"
   xmlns:rdf="http://www.w3.org/1999/02/22-rdf-syntax-ns#"
   xmlns:svg="http://www.w3.org/2000/svg"
   xmlns="http://www.w3.org/2000/svg"
   xmlns:sodipodi="http://sodipodi.sourceforge.net/DTD/sodipodi-0.dtd"
   xmlns:inkscape="http://www.inkscape.org/namespaces/inkscape"
   id="svg3089"
   version="1.1"
   inkscape:version="0.48.4 r9939"
   width="8645.6748"
   height="4322.8374"
   xml:space="preserve"
   sodipodi:docname="back_panel.pdf"><metadata
     id="metadata3095"><rdf:RDF><cc:Work
         rdf:about=""><dc:format>image/svg+xml</dc:format><dc:type
           rdf:resource="http://purl.org/dc/dcmitype/StillImage" /><dc:title></dc:title></cc:Work></rdf:RDF></metadata><defs
     id="defs3093" /><sodipodi:namedview
     pagecolor="#ffffff"
     bordercolor="#666666"
     borderopacity="1"
     objecttolerance="10"
     gridtolerance="10"
     guidetolerance="10"
     inkscape:pageopacity="0"
     inkscape:pageshadow="2"
     inkscape:window-width="1366"
     inkscape:window-height="706"
     id="namedview3091"
     showgrid="false"
     units="mm"
     inkscape:document-units="mm"
     inkscape:zoom="0.3108143"
     inkscape:cx="1639.4848"
     inkscape:cy="3487.4401"
     inkscape:window-x="-8"
     inkscape:window-y="-8"
     inkscape:window-maximized="1"
     inkscape:current-layer="g3097" /><g
     id="g3097"
     inkscape:groupmode="layer"
     inkscape:label="back_panel"
     transform="matrix(1.25,0,0,-1.25,0,4322.8378)"><path
       inkscape:connector-curvature="0"
       id="path3101"
       style="fill:none;stroke:#000000;stroke-width:0.70899999;stroke-linecap:round;stroke-linejoin:round;stroke-miterlimit:10;stroke-opacity:1;stroke-dasharray:none"
       d="m 294.1,2936.8 -42.3,3.7 m 56.1,154.5 -13.8,-158.2 m -28.5,161.9 42.3,-3.7 m -26.5,185.5 -15.8,-181.8 m 1121.8,181.8 -1106,0 m 1121.9,-181.8 -15.9,181.8 m 15.9,-181.8 -42.4,-3.7 m 0,0 13.8,-158.2 m 0,0 42.4,3.7 m 13.8,-158.2 -13.8,158.2 m 13.8,-158.2 -42.4,-3.7 m 0,0 13.8,-158.2 m 0,0 42.3,3.7 m 13.8,-158.2 -13.8,158.2 m -28.5,-161.9 13.4,-154.5 m -14.9,0 14.9,0 m -83.7,68.8 68.8,-68.8 m -186.1,735.1 117.3,-666.3 m -197,722.2 79.7,-55.9 m -721.6,55.9 641.9,0 m -710.7,-68.8 68.8,68.8 m -183.8,-722.2 115,653.4 m -183.8,-722.2 68.8,68.8 m -83.8,-68.8 15,0 m -1.5,154.5 -13.5,-154.5 m -28.9,158.2 42.4,-3.7 m 13.8,158.2 -42.4,3.7 m 56.2,154.5 -13.8,-158.2 m -28.6,161.9 42.4,-3.7 m 1178,-312.7 -42.3,-3.7 M 224.2,2624.1 210.4,2465.9 m 41.4,474.6 -13.8,-158.2" /></g></svg>