<?xml version="1.0" encoding="UTF-8" standalone="no"?>
<!-- Created with Inkscape (http://www.inkscape.org/) -->

<svg
   xmlns:dc="http://purl.org/dc/elements/1.1/"
   xmlns:cc="http://creativecommons.org/ns#"
   xmlns:rdf="http://www.w3.org/1999/02/22-rdf-syntax-ns#"
   xmlns:svg="http://www.w3.org/2000/svg"
   xmlns="http://www.w3.org/2000/svg"
   xmlns:sodipodi="http://sodipodi.sourceforge.net/DTD/sodipodi-0.dtd"
   xmlns:inkscape="http://www.inkscape.org/namespaces/inkscape"
   id="svg3104"
   version="1.1"
   inkscape:version="0.48.4 r9939"
   width="4322.8345"
   height="4322.8374"
   xml:space="preserve"
   sodipodi:docname="bottery_chair.ink.svg"><metadata
     id="metadata3110"><rdf:RDF><cc:Work
         rdf:about=""><dc:format>image/svg+xml</dc:format><dc:type
           rdf:resource="http://purl.org/dc/dcmitype/StillImage" /><dc:title></dc:title></cc:Work></rdf:RDF></metadata><defs
     id="defs3108" /><sodipodi:namedview
     pagecolor="#ffffff"
     bordercolor="#666666"
     borderopacity="1"
     objecttolerance="10"
     gridtolerance="10"
     guidetolerance="10"
     inkscape:pageopacity="0"
     inkscape:pageshadow="2"
     inkscape:window-width="1366"
     inkscape:window-height="706"
     id="namedview3106"
     showgrid="false"
     inkscape:zoom="0.08"
     inkscape:cx="1820.6356"
     inkscape:cy="2248.4299"
     inkscape:window-x="-8"
     inkscape:window-y="-8"
     inkscape:window-maximized="1"
     inkscape:current-layer="layer1"
     units="mm"
     inkscape:document-units="mm" /><g
     inkscape:groupmode="layer"
     id="layer1"
     inkscape:label="outline"
     transform="translate(0,7.5390625e-4)"><path
       inkscape:connector-curvature="0"
       id="path3116"
       style="fill:none;stroke:#004f94;stroke-width:7.08661461;stroke-linecap:round;stroke-linejoin:round;stroke-miterlimit:10;stroke-opacity:1;stroke-dasharray:none"
       d="m 497.375,1536.7125 17.125,196.25 m -70.125,-191.625 53,-4.625 m -70.125,-191.625 17.125,196.25 m 35.875,-200.875 -53,4.625 m 35.875,-200.875 17.125,196.25 m -70,-191.625 52.875,-4.625 m -70,-191.625 17.125,196.25 m 35.75,-200.875 -52.875,4.625 m 36.25,-196.25 16.625,191.625 m 2.125,-191.625 -18.75,0 m 104.75,86 -86,-86 m 265.75,1107.75 -179.75,-1021.75 m 279.375,1091.5 -99.625,-69.75 m 835.625,69.75 -736,0 m 822,-86 -86,86 m 262.875,-1091.5 -176.875,1005.5 m 262.875,-1091.5 -86,86 m 104.75,-86 -18.75,0 m 18.75,0 -16.75,191.625 m 0,0 53,4.625 m -17.125,196.25 17.125,-196.25 m -17.125,196.25 -52.875,-4.625 m 0,0 -17.125,196.25 m 0,0 52.875,4.625 m -17,196.25 17,-196.25 m -17,196.25 -53,-4.625 m 0,0 -17.125,196.25 m 0,0 53,4.625 m -17.125,196.25 17.125,-196.25 m -17.125,196.25 -53,-4.625 m 0,0 -19.5,224.5 m -541.75,0 541.75,0 m -543,46.125 1.25,-46.125 m -159.625,46.125 158.375,0 m -720.75,-270.625 19.5,224.5 m -72.5,-219.875 53,-4.625 m -70.125,-191.625 17.125,196.25 m 35.875,-200.875 -53,4.625 m 631.375,416.125 1.125,46.125 m -542.875,-46.125 541.75,0" /><path
       inkscape:connector-curvature="0"
       id="path3101"
       style="fill:none;stroke:#004f94;stroke-width:7.08661461;stroke-linecap:round;stroke-linejoin:round;stroke-miterlimit:10;stroke-opacity:1;stroke-dasharray:none"
       d="m 1487.125,816.33738 -52.875,-4.625 m 70.125,-193.125 -17.25,197.75 m -35.625,-202.375 52.875,4.625 m -33.125,-231.875 -19.75,227.25 m 1402.25,-227.25 -1382.5,0 m 1402.375,227.25 -19.875,-227.25 m 19.875,227.25 -53,4.625 m 0,0 17.25,197.75 m 0,0 53,-4.625 m 17.25,197.75002 -17.25,-197.75002 m 17.25,197.75002 -53,4.625 m 0,0 17.25,197.75 m 0,0 52.875,-4.625 m 17.25,197.75 -17.25,-197.75 m -35.625,202.375 16.75,193.125 m -18.625,0 18.625,0 m -104.625,-86 86,86 M 2655.125,683.83738 2801.75,1516.7124 m -246.25,-902.75002 99.625,69.875 m -902,-69.875 802.375,0 m -888.375,86 86,-86 m -229.75,902.75002 143.75,-816.75002 m -229.75,902.75002 86,-86 m -104.75,86 18.75,0 m -1.875,-193.125 -16.875,193.125 m -36.125,-197.75 53,4.625 m 17.25,-197.75 -53,-4.625 m 70.25,-193.125 -17.25,197.75 m -35.75,-202.375 53,4.625 m 1472.5,390.875 -52.875,4.625 m -1489.875,-202.375 -17.25,197.75 M 1434.25,811.71238 1417,1009.4624" /><path
       inkscape:connector-curvature="0"
       id="path3932"
       style="color:#000000;fill:none;stroke:#004f94;stroke-width:7.08661413;stroke-linecap:round;stroke-linejoin:round;stroke-miterlimit:10;stroke-opacity:1;stroke-dasharray:none;stroke-dashoffset:0;marker:none;visibility:visible;display:inline;overflow:visible;enable-background:accumulate"
       d="m 363.7501,3851.8374 -0.25,-159.75 m 0,0 -58,0.125 m 0,0 0.25,159.75 m 0,0 58,-0.125 m 1235.4998,-159.75 58,0.125 m -58.25,159.625 0.25,-159.75 m 57.75,159.875 -58,-0.125 m -1410.7498,110 66.75,66.75 m 22,-1524 -88.75,1457.25 m 1497.4998,-1457.25 -1408.7498,0 m 1497.2498,1453.25 -88.5,-1453.25 m 26,1524 62.5,-70.75 m -1519.2498,70.75 1456.7498,0 m -810.7498,-123.5 160.75,0 m 0,0 0,-56.625 m 0,0 -160.75,0 m 0,0 0,56.625 m 756.2498,-212.875 -0.25,159.75" /><path
       inkscape:connector-curvature="0"
       id="path3982"
       style="color:#000000;fill:none;stroke:#004f94;stroke-width:7.08661461;stroke-linecap:round;stroke-linejoin:round;stroke-miterlimit:10;stroke-opacity:1;stroke-dasharray:none;stroke-dashoffset:0;marker:none;visibility:visible;display:inline;overflow:visible;enable-background:accumulate"
       d="m 3663.875,302.3999 52.875,-4.625 m -48.375,57.625 -4.5,-53 m 52.875,48.75 -48.375,4.25 m 48.375,1113.125 0,-1117.375 m -48.375,1113.25 48.375,4.125 m -52.875,48.75 4.5,-52.875 m 48.375,57.5 -52.875,-4.625 m 52.875,93.25 0,-88.625 m -62.625,151.25 62.625,-62.625 m -463.25,10.125 400.625,52.5 m -470.875,-144 70.25,91.5 m -70.25,-1341.375 0,1249.875 m 81.625,-1331.5 -81.625,81.625 m 463.25,-131.75 -381.625,50.125 m 451.875,3.875 -70.25,-54 m 70.25,150.25 0,-96.25 m -336.375,1094.375 -37.125,-37 m 37.125,37 87.625,3.75 m 35.375,-32.375 -35.375,32.375 m 35.375,-32.375 0,-713.375 m -34,-33.875 34,33.875 m -34,-33.875 -90.625,3.875 m -35.5,38.625 0,696.375 m 0,230.5 155.5,13.5 m 0,0 4.625,-52.875 m 0,0 -155.5,-13.625 m 0,0 -4.625,53 m 155.5,-1172.625 -155.5,13.625 m 0,0 4.625,52.875 m 0,0 155.5,-13.5 m 0,0 -4.625,-53 m -155.5,245.75 35.5,-38.625" /><path
       inkscape:connector-curvature="0"
       id="path4032"
       style="color:#000000;fill:none;stroke:#004f94;stroke-width:7.08661413;stroke-linecap:round;stroke-linejoin:round;stroke-miterlimit:10;stroke-opacity:1;stroke-dasharray:none;stroke-dashoffset:0;marker:none;visibility:visible;display:inline;overflow:visible;enable-background:accumulate"
       d="m 3703.25,3707.3999 53,-4.625 m -54.875,196.25 72,0 m -421,-1141.75 87.625,61.25 m -1234.5,168.5 88.5,-111 m -320.25,1023 86,-86.125 m -140.75,-111.625 52.875,4.625 m 0,0 17.375,-197.75 m 0,0 -53,-4.625 m 16.875,-193.125 53.375,0 m 0,0 17.375,-197.75 m 0,0 -53,-4.625 m 17.25,-197.75 53,4.625 m 0,0 19.875,-227.25 m 0,0 -53,-4.625 m 101.875,-1276.75 -77.625,77.625 m 200.375,68.25 -13.625,-155.5 m -32.25,159.5 45.875,-4 m 69.875,924.5 -52.875,1.375 m 0,0 1.5,58 m 1187.375,-75.375 -0.125,46.25 m 157.375,-50.125 -157.25,3.875 m 159.5,42.375 -2.25,-46.25 m 74.625,264.75 -52.875,4.625 m 0,0 17.125,196.25 m 0,0 53,-4.625 m 17.125,196.25 -53,4.625 m 0,0 17.25,196.25 m 70.125,191.625 -53,4.625 m 0,0 17.125,196.25 m -34.25,-392.5 52.875,-4.625 m -51.5,-588.75 -19.25,-219.875 m -212.75,5.25 -1187.25,29.125 m 51.375,-59.375 -66.125,-758.5 m 0,0 -35.25,3.125 m 0,0 -14.375,-165.125 m 32.25,-159.5 -109.125,9.625 m -77.625,77.625 -0.375,926.5 m -78.75,900 -16.875,193.125 m -34.625,395.5 72.125,0 m 86,-86.125 145.75,-825.875 m 88.5,-111 1058.375,-118.75 m 87.625,61.25 175.25,994.375 m 158.125,86.125 -17.125,-196.25 m -105.125,-1201.125 -53.125,1.375 m -1566.125,-92.625 -23.875,272.625 m -19.875,227.25 -17.25,197.75 m -51.875,593.25 -17.375,197.75 m 1803.125,-785 -17.125,-196.25 m 51.5,588.75 -17.25,-196.25 m -106.625,502.625 86.125,86.125" /><path
       inkscape:connector-curvature="0"
       id="path4032-1"
       style="color:#000000;fill:none;stroke:#004f94;stroke-width:7.08661413;stroke-linecap:round;stroke-linejoin:round;stroke-miterlimit:10;stroke-opacity:1;stroke-dasharray:none;stroke-dashoffset:0;marker:none;visibility:visible;display:inline;overflow:visible;enable-background:accumulate"
       d="m 2421.75,1038.2749 -53,4.625 m 54.875,-196.25 -72,0 m 421,1141.75 -87.625,-61.25 m 1234.5,-168.5 -88.5,111 m 320.25,-1023 -86,86.125 m 140.75,111.625 -52.875,-4.625 m 0,0 -17.375,197.75 m 0,0 53,4.625 m -16.875,193.125 -53.375,0 m 0,0 -17.375,197.75 m 0,0 53,4.625 m -17.25,197.75 -53,-4.625 m 0,0 -19.875,227.25 m 0,0 53,4.625 m -101.875,1276.75 77.625,-77.625 m -200.375,-68.25 13.625,155.5 m 32.25,-159.5 -45.875,4 m -69.875,-924.5 52.875,-1.375 m 0,0 -1.5,-58 m -1187.375,75.375 0.125,-46.25 m -157.375,50.125 157.25,-3.875 m -159.5,-42.375 2.25,46.25 m -74.625,-264.75 52.875,-4.625 m 0,0 -17.125,-196.25 m 0,0 -53,4.625 m -17.125,-196.25 53,-4.625 m 0,0 -17.25,-196.25 m -70.125,-191.625 53,-4.625 m 0,0 -17.125,-196.25 m 34.25,392.5 -52.875,4.625 m 51.5,588.75 19.25,219.875 m 212.75,-5.25 1187.25,-29.125 m -51.375,59.375 66.125,758.5 m 0,0 35.25,-3.125 m 0,0 14.375,165.125 m -32.25,159.5 109.125,-9.625 m 77.625,-77.625 0.375,-926.5 m 78.75,-900 16.875,-193.125 m 34.625,-395.5 -72.125,0 m -86,86.125 -145.75,825.875 m -88.5,111 -1058.375,118.75 m -87.625,-61.25 -175.25,-994.375 m -158.125,-86.125 17.125,196.25 m 105.125,1201.125 53.125,-1.375 m 1566.125,92.625 23.875,-272.625 m 19.875,-227.25 17.25,-197.75 m 51.875,-593.25 17.375,-197.75 m -1803.125,785 17.125,196.25 m -51.5,-588.75 17.25,196.25 m 106.625,-502.625 -86.125,-86.125" /></g></svg>