<?xml version="1.0" encoding="UTF-8" standalone="no"?>
<!-- Created with Inkscape (http://www.inkscape.org/) -->

<svg
   xmlns:dc="http://purl.org/dc/elements/1.1/"
   xmlns:cc="http://creativecommons.org/ns#"
   xmlns:rdf="http://www.w3.org/1999/02/22-rdf-syntax-ns#"
   xmlns:svg="http://www.w3.org/2000/svg"
   xmlns="http://www.w3.org/2000/svg"
   xmlns:sodipodi="http://sodipodi.sourceforge.net/DTD/sodipodi-0.dtd"
   xmlns:inkscape="http://www.inkscape.org/namespaces/inkscape"
   id="svg3007"
   version="1.1"
   inkscape:version="0.48.4 r9939"
   width="2161.4172"
   height="4322.8374"
   xml:space="preserve"
   sodipodi:docname="bottery_chair_a.ink.svg"><metadata
     id="metadata3013"><rdf:RDF><cc:Work
         rdf:about=""><dc:format>image/svg+xml</dc:format><dc:type
           rdf:resource="http://purl.org/dc/dcmitype/StillImage" /><dc:title></dc:title></cc:Work></rdf:RDF></metadata><defs
     id="defs3011" /><sodipodi:namedview
     pagecolor="#ffffff"
     bordercolor="#666666"
     borderopacity="1"
     objecttolerance="10"
     gridtolerance="10"
     guidetolerance="10"
     inkscape:pageopacity="0"
     inkscape:pageshadow="2"
     inkscape:window-width="1366"
     inkscape:window-height="706"
     id="namedview3009"
     showgrid="false"
     inkscape:zoom="0.10918754"
     inkscape:cx="315.57765"
     inkscape:cy="2226.0561"
     inkscape:window-x="-8"
     inkscape:window-y="-8"
     inkscape:window-maximized="1"
     inkscape:current-layer="layer1"
     units="mm"
     inkscape:document-units="mm"
     inkscape:object-nodes="true"
     inkscape:snap-global="false" /><g
     id="g3015"
     inkscape:groupmode="layer"
     inkscape:label="bottery_chair"
     transform="matrix(1.25,0,0,-1.25,0,4322.8375)"
     sodipodi:insensitive="true"
     style="display:none"><g
       id="g3017"
       transform="matrix(-1,0,0,-1,1047.9926,326.37316)"><path
         d="M 0,0 655.1,0 M -66.5,-55.8 0,0 m -186.1,-735.1 119.6,679.3 m -119.6,-679.3 -66.5,-55.8 m -15,0 15,0 m -1.5,154.5 -13.5,-154.5 m -28.9,158.1 42.4,-3.6 m 13.8,158.1 -42.4,3.7 m 56.2,154.5 -13.8,-158.2 m -28.6,161.9 42.4,-3.7 m 13.8,158.2 -42.4,3.7 M -199,-3.7 -212.7,-161.9 M -241.3,0 -199,-3.7 M -225.5,181.8 -241.3,0 m 1121.9,181.8 -1106.1,0 M 896.4,0 880.6,181.8 M 896.4,0 854,-3.7 m 0,0 13.8,-158.2 m 0,0 42.4,3.7 m 13.8,-158.2 -13.8,158.2 m 13.8,-158.2 -42.4,-3.7 m 0,0 13.8,-158.2 m 56.1,-154.5 -13.7,158.2 m 13.7,-158.2 -42.3,-3.6 m 0,0 13.5,-154.5 m -15,0 15,0 m -15,0 -66.6,55.8 M 721.6,-55.8 841.1,-735.1 M 655.1,0 721.6,-55.8 m 173.8,-422.5 42.4,3.7 m -1220.5,0 -13.8,-158.2 m 41.4,474.6 -13.8,-158.2"
         style="fill:none;stroke:#000000;stroke-width:0.70899999;stroke-linecap:round;stroke-linejoin:round;stroke-miterlimit:10;stroke-opacity:1;stroke-dasharray:none"
         id="path3019"
         inkscape:connector-curvature="0" /></g><g
       id="g3021"
       transform="translate(716.31266,1719.9379)"><path
         d="M 0,0 601.9,0 M -66.6,-55.8 0,0 m -212.7,-886.1 146.1,830.3 m -146.1,-830.3 -66.5,-55.9 m -15,0 15,0 m -15,0 13.4,153.3 m 0,0 -42.4,3.7 m 13.7,157 -13.7,-157 m 13.7,157 42.4,-3.7 m 0,0 13.6,157 m 0,0 -42.3,3.7 m 13.7,157 -13.7,-157 m 13.7,157 42.3,-3.7 m 0,0 13.7,157 m 0,0 -42.4,3.7 m 13.7,157 -13.7,-157 m 13.7,157 42.4,-3.7 m 0,0 15.6,179.6 m 433.4,0 -433.4,0 m 561.1,37 -126.7,0 m 127.6,-37 -0.9,37 M 814.3,-3.7 798.6,175.9 M 856.6,0 814.3,-3.7 M 870.3,-157 856.6,0 m -28.7,-160.7 42.4,3.7 m -28.7,-160.7 -13.7,157 M 884,-314 841.6,-317.7 M 897.7,-471 884,-314 m -28.7,-160.7 42.4,3.7 m -28.7,-160.7 -13.7,157 M 911.4,-628 869,-631.7 m 56,-153.3 -13.6,157 m -28.7,-160.7 42.3,3.7 m -29,-157 -13.3,153.3 m -1.6,-153.3 14.9,0 m -14.9,0 -66.6,55.9 M 668.4,-55.8 814.5,-886.1 M 601.9,0 668.4,-55.8 m -430.8,268.7 -1,-37 m 562,0 -433.4,0"
         style="fill:none;stroke:#000000;stroke-width:0.70899999;stroke-linecap:round;stroke-linejoin:round;stroke-miterlimit:10;stroke-opacity:1;stroke-dasharray:none"
         id="path3023"
         inkscape:connector-curvature="0" /></g><g
       id="g3029"
       transform="translate(375.74545,2353.8106)"><path
         d="m 0,0 -46.4,-0.1 m 0,0 0.3,-127.7 m 0,0 46.4,0.1 m 0,0 L 0,0 m 1035.1,-0.1 -0.3,-127.7 M 988.7,0 1035.1,-0.1 M 988.4,-127.7 988.7,0 M 430,-125.1 l 0,-45.3 m 0,0 128.6,0 m 0,0 0,45.3 m 0,0 -128.6,0 m -528.4,1089.3 -43,-1176.8 m 93.1,1176.8 -50.1,0 m 50.1,-28.3 0,28.3 m 46.4,-28.3 -46.4,0 m 46.4,28.3 0,-28.3 m 992.5,28.3 -992.5,0 m 992.5,-28.3 0,28.3 m 46.4,-28.3 -46.4,0 m 46.4,28.3 0,-28.3 m 50,28.3 -50,0 m 93,-1176.8 -43,1176.8 m 43,-1176.8 -54.6,-56.6 m -1162.2,0 1162.2,0 m -1162.2,0 -54.6,56.6 m 1176.2,84.8 -46.4,0.1"
         style="fill:none;stroke:#000000;stroke-width:0.70899999;stroke-linecap:round;stroke-linejoin:round;stroke-miterlimit:10;stroke-opacity:1;stroke-dasharray:none"
         id="path3031"
         inkscape:connector-curvature="0" /></g></g><g
     inkscape:groupmode="layer"
     id="layer1"
     inkscape:label="outline"><g
       id="g3948"
       transform="translate(9.1585538,-45.792769)"><path
         inkscape:connector-curvature="0"
         id="path3080"
         d="m 346.68181,175.32425 62.625,0 0,35.375 58,0 0,-35.375 1240.62499,0 0,35.375 58,0 0,-35.375 62.5,0 53.75,1470.99995 -68.25,70.75 -1452.74999,0 -68.25,-70.75 z"
         style="fill:none;stroke:#0000ff;stroke-width:3.54330707;stroke-linecap:butt;stroke-linejoin:miter;stroke-miterlimit:4;stroke-opacity:1;stroke-dasharray:none" /><path
         inkscape:connector-curvature="0"
         id="path3082"
         d="m 411.68181,1380.6992 0.375,159.625 58,-0.125 -0.375,-159.625 z"
         style="fill:none;stroke:#0000ff;stroke-width:3.54330707;stroke-linecap:butt;stroke-linejoin:miter;stroke-miterlimit:4;stroke-opacity:1;stroke-dasharray:none" /><path
         inkscape:connector-curvature="0"
         id="path3084"
         d="m 1007.1818,1536.9492 160.75,0 0,56.625 -160.75,0 z"
         style="fill:none;stroke:#0000ff;stroke-width:3.54330707;stroke-linecap:butt;stroke-linejoin:miter;stroke-miterlimit:4;stroke-opacity:1;stroke-dasharray:none" /><path
         inkscape:connector-curvature="0"
         id="path3086"
         d="m 1705.5568,1380.5742 58,0.125 -0.375,159.625 -58,-0.125 z"
         style="fill:none;stroke:#0000ff;stroke-width:3.54330707;stroke-linecap:butt;stroke-linejoin:miter;stroke-miterlimit:4;stroke-opacity:1;stroke-dasharray:none" /></g><path
       style="fill:none;stroke:#0000ff;stroke-width:3.54330707;stroke-linecap:butt;stroke-linejoin:miter;stroke-miterlimit:4;stroke-opacity:1;stroke-dasharray:none"
       d="m 436.05529,3222.1954 18.75,0 83.125,-69.875 182.625,-1037.875 83.25,-69.75 752.37491,0 83.125,69.75 182.625,1037.875 83.25,69.875 18.625,0 -16.625,-191.625 52.875,-4.625 -17,-196.25 -53,4.625 -17.125,-196.25 53,-4.625 -17.125,-196.25 -53,4.625 -17.125,-196.25 53,-4.625 -17.125,-196.25 -52.875,4.625 -19.625,-224.5 -541.75,0 -1.125,-46.25 -158.375,0 -1.25,46.25 -541.74991,0 -19.5,224.5 -53,-4.625 -17.125,196.25 53,4.625 -17.125,196.25 -52.875,-4.625 -17.125,196.25 52.875,4.625 -17,196.25 -53,-4.625 -17.125,196.25 53,4.625 z"
       id="path3088"
       inkscape:connector-curvature="0" /><path
       style="fill:none;stroke:#0000ff;stroke-width:3.54330707;stroke-linecap:butt;stroke-linejoin:miter;stroke-miterlimit:4;stroke-opacity:1;stroke-dasharray:none"
       d="m 174.93286,2962.8802 18.75,0 83.25,69.75 149.375,849.125 83.125,69.75 818.87504,0 83.125,-69.75 149.5,-849.125 83.125,-69.75 18.75,0 -16.875,193.125 53,4.5 -17.25,197.75 -53,-4.625 -17.25,197.75 53,4.625 -17.25,197.75 -53,-4.625 -17.125,197.75 52.875,4.625 -19.75,227.25 -1382.62504,0 -19.75,-227.25 53,-4.625 -17.25,-197.75 -53,4.625 -17.25,-197.75 53,-4.625 -17.25,-197.75 -53,4.625 -17.125,-197.75 52.875,-4.5 z"
       id="path3090"
       inkscape:connector-curvature="0" /><g
       id="g3912"
       transform="matrix(0,-1,1,0,651.18886,4090.0623)"><path
         inkscape:connector-curvature="0"
         id="path3872"
         d="m 412.00344,214.70338 80,-70.25001 1261.37496,0 80,70.25 51.625,393 -61.625,70.25 -88.625,0 -4.625,-53 -53,4.625 4.25,48.375 -1117.37496,0 4.25,-48.375 -53,-4.625 -4.625,53 -88.625,0 -61.625,-70.25 z"
         style="color:#000000;fill:none;stroke:#0000ff;stroke-width:3.54330707;stroke-linecap:butt;stroke-linejoin:miter;stroke-miterlimit:4;stroke-opacity:1;stroke-dasharray:none;stroke-dashoffset:0;marker:none;visibility:visible;display:inline;overflow:visible;enable-background:accumulate" /><path
         inkscape:connector-curvature="0"
         id="path3874"
         d="m 543.12844,304.45337 -13.5,155.5 53,4.625 13.5,-155.5 z"
         style="color:#000000;fill:none;stroke:#0000ff;stroke-width:3.54330707;stroke-linecap:butt;stroke-linejoin:miter;stroke-miterlimit:4;stroke-opacity:1;stroke-dasharray:none;stroke-dashoffset:0;marker:none;visibility:visible;display:inline;overflow:visible;enable-background:accumulate" /><path
         inkscape:connector-curvature="0"
         id="path3876"
         d="m 1649.2534,309.07837 13.5,155.5 53,-4.625 -13.5,-155.5 z"
         style="color:#000000;fill:none;stroke:#0000ff;stroke-width:3.54330707;stroke-linecap:butt;stroke-linejoin:miter;stroke-miterlimit:4;stroke-opacity:1;stroke-dasharray:none;stroke-dashoffset:0;marker:none;visibility:visible;display:inline;overflow:visible;enable-background:accumulate" /><path
         inkscape:connector-curvature="0"
         id="path3878"
         d="m 1478.6284,464.57837 33.875,-35.5 -3.875,-89.25 -37,-35.375 -697.87496,0 -37,35.375 -3.875,89.25 33.875,35.5 z"
         style="color:#000000;fill:none;stroke:#0000ff;stroke-width:3.54330707;stroke-linecap:butt;stroke-linejoin:miter;stroke-miterlimit:4;stroke-opacity:1;stroke-dasharray:none;stroke-dashoffset:0;marker:none;visibility:visible;display:inline;overflow:visible;enable-background:accumulate" /></g></g></svg>