<?xml version="1.0" encoding="UTF-8" standalone="no"?>
<!-- Created with Inkscape (http://www.inkscape.org/) -->

<svg
   xmlns:dc="http://purl.org/dc/elements/1.1/"
   xmlns:cc="http://creativecommons.org/ns#"
   xmlns:rdf="http://www.w3.org/1999/02/22-rdf-syntax-ns#"
   xmlns:svg="http://www.w3.org/2000/svg"
   xmlns="http://www.w3.org/2000/svg"
   xmlns:sodipodi="http://sodipodi.sourceforge.net/DTD/sodipodi-0.dtd"
   xmlns:inkscape="http://www.inkscape.org/namespaces/inkscape"
   id="svg3007"
   version="1.1"
   inkscape:version="0.48.4 r9939"
   width="2161.4172"
   height="4322.8374"
   xml:space="preserve"
   sodipodi:docname="bottery_chair_b.ink.svg"><metadata
     id="metadata3013"><rdf:RDF><cc:Work
         rdf:about=""><dc:format>image/svg+xml</dc:format><dc:type
           rdf:resource="http://purl.org/dc/dcmitype/StillImage" /><dc:title /></cc:Work></rdf:RDF></metadata><defs
     id="defs3011" /><sodipodi:namedview
     pagecolor="#ffffff"
     bordercolor="#666666"
     borderopacity="1"
     objecttolerance="10"
     gridtolerance="10"
     guidetolerance="10"
     inkscape:pageopacity="0"
     inkscape:pageshadow="2"
     inkscape:window-width="1366"
     inkscape:window-height="706"
     id="namedview3009"
     showgrid="false"
     inkscape:zoom="0.10918754"
     inkscape:cx="1410.7417"
     inkscape:cy="2087.0207"
     inkscape:window-x="-8"
     inkscape:window-y="-8"
     inkscape:window-maximized="1"
     inkscape:current-layer="layer2"
     units="mm"
     inkscape:document-units="mm"
     inkscape:object-nodes="true"
     inkscape:snap-global="false" /><g
     id="g3015"
     inkscape:groupmode="layer"
     inkscape:label="bottery_chair"
     transform="matrix(1.25,0,0,-1.25,0,4322.8375)"
     sodipodi:insensitive="true"
     style="display:none"><g
       id="g3025"
       transform="translate(434.50275,3214.7073)"><path
         d="m 0,0 -10.8,-124.4 m 0,0 42.4,-3.7 m 0,0 10.8,124.4 m 0,0 L 0,0 M 938.1,-124.4 927.3,0 m 0,0 -42.4,-3.7 m 0,0 10.8,-124.4 m 0,0 42.4,3.7 m -1043,196.2 64,56.2 m 1009.1,0 64,-56.2 m 41.3,-314.4 -49.3,-56.2 M 742.8,0 772.4,-28.3 M 742.8,0 184.5,0 M 154.9,-28.3 184.5,0 m -29.6,-28.3 -3.1,-71.4 m 27.1,-28.4 -27.1,28.4 m 27.1,-28.4 569.5,0 m 27.1,28.4 -27.1,-28.4 m 27.1,28.4 -3.1,71.4 m -869.3,-270.5 -49.3,56.2 m 41.3,314.4 -41.3,-314.4 m 49.3,-56.2 70.9,0 m 0,0 3.7,42.4 m 0,0 42.4,-3.7 m 0,0 -3.4,-38.7 m 0,0 893.9,0 m 0,0 -3.4,38.7 m 0,0 42.4,3.7 m 0,0 3.7,-42.4 m 0,0 70.9,0 m 49.3,56.2 -41.3,314.4 m -64,56.2 -1009.1,0"
         style="fill:none;stroke:#000000;stroke-width:0.70899999;stroke-linecap:round;stroke-linejoin:round;stroke-miterlimit:10;stroke-opacity:1;stroke-dasharray:none"
         id="path3027"
         inkscape:connector-curvature="0" /></g><g
       id="g3033"
       transform="translate(338.96569,845.18525)"><path
         d="m 0,0 66.2,62.1 m -189.7,-762.6 -66.5,-55.8 m -43.8,158.2 42.3,-3.7 m 0,0 13.9,158.2 m 0,0 -42.4,3.7 m 13.5,154.5 42.7,0 m 0,0 13.8,158.2 m 0,0 -42.3,3.7 m 13.8,158.1 42.4,-3.7 m 0,0 15.9,181.9 m 0,0 -42.4,3.7 m 19.4,959.3 56.5,61.6 M 17.1,1121.2 6.2,1245.5 m -25.8,-127.5 36.7,3.2 M 73,381.5 44.9,380.8 m 0,0 1.1,-46.3 m 935.7,59.9 0,-37 m 125.8,40.1 -125.8,-3.1 m 127.7,-33.9 -1.9,37 m 59.8,-211.8 -42.4,-3.7 m 0,0 13.8,-157 m 0,0 42.3,3.7 m 13.8,-157 -42.4,-3.7 m 0,0 13.8,-157 m 0,0 42.3,3.7 m 13.7,-157 -42.3,-3.7 m 13.7,-157 42.4,3.7 m -44,-157 -66.5,55.8 m -208.7,858 66.1,-49.5 m 197,-554 13.7,-157 m -26.3,788.7 -15.4,175.8 M 981.7,357.4 46,334.5 m 27,47 -52.9,606.9 m 0,0 -28.2,-2.5 m 0,0 -11.5,132.1 m 25.8,127.5 -92.9,-8.1 m -56.5,-61.6 -0.3,-741.2 m -63,-720 -13.5,-154.5 m -27.7,-316.4 57.7,0 m 66.5,55.8 L 0,0 m 66.2,62.1 850.6,95.4 m 66.1,-49.5 142.6,-808.5 m 66.5,-55.8 57.7,0 m -97.8,1117.8 -42.5,-1 m -1252.9,74.1 -19.1,-218.1 m -15.9,-181.9 -13.8,-158.1 m -41.5,-474.6 -13.9,-158.2 m 1442.5,628 -13.8,157 m 68.7,-785 -13.7,157 m -13.8,157 -13.7,157"
         style="fill:none;stroke:#000000;stroke-width:0.70899999;stroke-linecap:round;stroke-linejoin:round;stroke-miterlimit:10;stroke-opacity:1;stroke-dasharray:none"
         id="path3035"
         inkscape:connector-curvature="0" /></g></g><g
     inkscape:groupmode="layer"
     id="layer2"
     inkscape:label="outline"><path
       style="color:#000000;fill:none;stroke:#0000ff;stroke-width:3.54330707;stroke-linecap:butt;stroke-linejoin:miter;stroke-miterlimit:4;stroke-opacity:1;stroke-dasharray:none;stroke-dashoffset:0;marker:none;visibility:visible;display:inline;overflow:visible;enable-background:accumulate"
       d="m 253.86566,1805.7645 70.625,-77 116.125,-10.125 13.625,155.375 -45.875,4 14.375,165.125 35.25,-3.125 66.125,758.625 -35.125,0.875 1.375,57.875 1169.62504,-28.625 0,-46.25 157.25,-3.875 2.375,46.25 53.125,-1.25 19.25,219.75 -53,4.625 17.25,196.25 52.875,-4.625 17.25,196.25 -53,4.625 17.25,196.25 52.875,-4.625 17.125,196.25 -52.875,4.625 17.125,196.25 53,-4.625 17.125,196.25 -72.125,0 -83.125,-69.75 -178.25,-1010.625 -82.625,-61.875 -1063.25004,119.25 -82.75,77.625 -154.375,875.625 -83.125,69.75 -72.125,0 17.375,-197.75 52.875,4.625 17.375,-197.75 -53,-4.625 16.875,-193.125 53.375,0 17.25,-197.75 -52.875,-4.625 17.25,-197.625 53,4.625 19.875,-227.375 -53,-4.625 23.875,-272.625 z"
       id="path3886"
       inkscape:connector-curvature="0" /><path
       style="color:#000000;fill:none;stroke:#0000ff;stroke-width:3.54330707;stroke-linecap:butt;stroke-linejoin:miter;stroke-miterlimit:4;stroke-opacity:1;stroke-dasharray:none;stroke-dashoffset:0;marker:none;visibility:visible;display:inline;overflow:visible;enable-background:accumulate"
       d="m 1928.9445,2523.9374 -70.625,77 -116.125,10.125 -13.625,-155.375 45.875,-4 -14.375,-165.125 -35.25,3.125 -66.125,-758.625 35.125,-0.875 -1.375,-57.875 -1169.62502,28.625 0,46.25 -157.25,3.875 -2.375,-46.25 -53.125,1.25 -19.25,-219.75 53,-4.625 -17.25,-196.25 -52.875,4.625 -17.25,-196.24999 53,-4.625 -17.25,-196.25 -52.875,4.625 -17.125,-196.25 52.875,-4.625 -17.125,-196.25 -53,4.625 -17.125,-196.25 72.125,0 83.125,69.75 178.25,1010.62499 82.625,61.875 1063.25002,-119.25 82.75,-77.6249 154.375,-875.62509 83.125,-69.75 72.125,0 -17.375,197.75 -52.875,-4.625 -17.375,197.75 53,4.625 -16.875,193.125 -53.375,0 -17.25,197.75 52.875,4.625 -17.25,197.62499 -53,-4.625 -19.875,227.375 53,4.625 -23.875,272.625 z"
       id="path3886-6"
       inkscape:connector-curvature="0" /></g></svg>