<?xml version="1.0" encoding="UTF-8" standalone="no"?>
<!-- Created with Inkscape (http://www.inkscape.org/) -->

<svg
   xmlns:dc="http://purl.org/dc/elements/1.1/"
   xmlns:cc="http://creativecommons.org/ns#"
   xmlns:rdf="http://www.w3.org/1999/02/22-rdf-syntax-ns#"
   xmlns:svg="http://www.w3.org/2000/svg"
   xmlns="http://www.w3.org/2000/svg"
   xmlns:sodipodi="http://sodipodi.sourceforge.net/DTD/sodipodi-0.dtd"
   xmlns:inkscape="http://www.inkscape.org/namespaces/inkscape"
   id="svg3104"
   version="1.1"
   inkscape:version="0.48.4 r9939"
   width="8645.675"
   height="4322.8375"
   xml:space="preserve"
   sodipodi:docname="front_panel.pdf"><metadata
     id="metadata3110"><rdf:RDF><cc:Work
         rdf:about=""><dc:format>image/svg+xml</dc:format><dc:type
           rdf:resource="http://purl.org/dc/dcmitype/StillImage" /><dc:title></dc:title></cc:Work></rdf:RDF></metadata><defs
     id="defs3108" /><sodipodi:namedview
     pagecolor="#ffffff"
     bordercolor="#666666"
     borderopacity="1"
     objecttolerance="10"
     gridtolerance="10"
     guidetolerance="10"
     inkscape:pageopacity="0"
     inkscape:pageshadow="2"
     inkscape:window-width="1366"
     inkscape:window-height="706"
     id="namedview3106"
     showgrid="false"
     inkscape:zoom="0.32"
     inkscape:cx="1227.4328"
     inkscape:cy="3323.3145"
     inkscape:window-x="-8"
     inkscape:window-y="-8"
     inkscape:window-maximized="1"
     inkscape:current-layer="g3112" /><g
     id="g3112"
     inkscape:groupmode="layer"
     inkscape:label="front_panel"
     transform="matrix(1.25,0,0,-1.25,0,4322.8375)"><path
       inkscape:connector-curvature="0"
       id="path3116"
       style="fill:none;stroke:#000000;stroke-width:0.70899999;stroke-linecap:round;stroke-linejoin:round;stroke-miterlimit:10;stroke-opacity:1;stroke-dasharray:none"
       d="m 1349.3,2737.7 -13.7,157 m 56.1,-153.3 -42.4,-3.7 m 56.1,-153.3 -13.7,157 m -28.7,-160.7 42.4,3.7 m -28.7,-160.7 -13.7,157 m 56,-153.3 -42.3,-3.7 m 56,-153.3 -13.7,157 m -28.6,-160.7 42.3,3.7 m -29,-157 -13.3,153.3 m -1.7,-153.3 15,0 m -83.8,68.8 68.8,-68.8 m -212.6,886.2 143.8,-817.4 m -223.5,873.2 79.7,-55.8 m -668.5,55.8 588.8,0 m -657.6,-68.8 68.8,68.8 m -210.3,-873.2 141.5,804.4 m -210.3,-873.2 68.8,68.8 m -83.8,-68.8 15,0 m -15,0 13.4,153.3 m 0,0 -42.4,3.7 m 13.7,157 -13.7,-157 m 13.7,157 42.3,-3.7 m 0,0 13.7,157 m 0,0 -42.3,3.7 m 13.6,157 -13.6,-157 m 13.6,157 42.4,-3.7 m 0,0 13.7,157 m 0,0 -42.4,3.7 m 13.7,157 -13.7,-157 m 13.7,157 42.4,-3.7 m 0,0 15.6,179.6 m 433.4,0 -433.4,0 m 434.4,36.9 -1,-36.9 m 127.7,36.9 -126.7,0 m 576.6,-216.5 -15.6,179.6 m 58,-175.9 -42.4,-3.7 m 56.1,-153.3 -13.7,157 m -28.7,-160.7 42.4,3.7 m -505.1,332.9 -0.9,36.9 m 434.3,-36.9 -433.4,0" /></g></svg>