<?xml version="1.0" encoding="UTF-8" standalone="no"?>
<!-- Created with Inkscape (http://www.inkscape.org/) -->

<svg
   xmlns:dc="http://purl.org/dc/elements/1.1/"
   xmlns:cc="http://creativecommons.org/ns#"
   xmlns:rdf="http://www.w3.org/1999/02/22-rdf-syntax-ns#"
   xmlns:svg="http://www.w3.org/2000/svg"
   xmlns="http://www.w3.org/2000/svg"
   xmlns:sodipodi="http://sodipodi.sourceforge.net/DTD/sodipodi-0.dtd"
   xmlns:inkscape="http://www.inkscape.org/namespaces/inkscape"
   id="svg3920"
   version="1.1"
   inkscape:version="0.48.4 r9939"
   width="8645.675"
   height="4322.8375"
   xml:space="preserve"
   sodipodi:docname="seat.pdf"><metadata
     id="metadata3926"><rdf:RDF><cc:Work
         rdf:about=""><dc:format>image/svg+xml</dc:format><dc:type
           rdf:resource="http://purl.org/dc/dcmitype/StillImage" /><dc:title></dc:title></cc:Work></rdf:RDF></metadata><defs
     id="defs3924" /><sodipodi:namedview
     pagecolor="#ffffff"
     bordercolor="#666666"
     borderopacity="1"
     objecttolerance="10"
     gridtolerance="10"
     guidetolerance="10"
     inkscape:pageopacity="0"
     inkscape:pageshadow="2"
     inkscape:window-width="1366"
     inkscape:window-height="706"
     id="namedview3922"
     showgrid="false"
     inkscape:zoom="0.18778374"
     inkscape:cx="1642.0857"
     inkscape:cy="3074.1174"
     inkscape:window-x="-8"
     inkscape:window-y="-8"
     inkscape:window-maximized="1"
     inkscape:current-layer="g3928" /><g
     id="g3928"
     inkscape:groupmode="layer"
     inkscape:label="seat"
     transform="matrix(1.25,0,0,-1.25,0,4322.8375)"><path
       inkscape:connector-curvature="0"
       id="path3932"
       style="fill:none;stroke:#000000;stroke-width:0.70899999;stroke-linecap:round;stroke-linejoin:round;stroke-miterlimit:10;stroke-opacity:1;stroke-dasharray:none"
       d="m 411.04198,2159.8817 -0.2,127.8 m 0,0 -46.4,-0.1 m 0,0 0.2,-127.8 m 0,0 46.4,0.1 m 988.39992,127.8 46.4,-0.1 m -46.6,-127.7 0.2,127.8 m 46.2,-127.9 -46.4,0.1 m -1128.59992,-88 53.4,-53.4 m 17.6,1219.2 -71,-1165.8 m 1197.99992,1165.8 -1126.99992,0 m 1197.79992,-1162.6 -70.8,1162.6 m 20.8,-1219.2 50,56.6 m -1215.39992,-56.6 1165.39992,0 m -648.59992,98.8 128.6,0 m 0,0 0,45.3 m 0,0 -128.6,0 m 0,0 0,-45.3 m 604.99992,170.3 -0.2,-127.8" /></g></svg>