<?xml version="1.0" encoding="UTF-8" standalone="no"?>
<!-- Created with Inkscape (http://www.inkscape.org/) -->

<svg
   xmlns:dc="http://purl.org/dc/elements/1.1/"
   xmlns:cc="http://creativecommons.org/ns#"
   xmlns:rdf="http://www.w3.org/1999/02/22-rdf-syntax-ns#"
   xmlns:svg="http://www.w3.org/2000/svg"
   xmlns="http://www.w3.org/2000/svg"
   xmlns:sodipodi="http://sodipodi.sourceforge.net/DTD/sodipodi-0.dtd"
   xmlns:inkscape="http://www.inkscape.org/namespaces/inkscape"
   id="svg3970"
   version="1.1"
   inkscape:version="0.48.4 r9939"
   width="8645.675"
   height="4322.8375"
   xml:space="preserve"
   sodipodi:docname="seat_back.pdf"><metadata
     id="metadata3976"><rdf:RDF><cc:Work
         rdf:about=""><dc:format>image/svg+xml</dc:format><dc:type
           rdf:resource="http://purl.org/dc/dcmitype/StillImage" /><dc:title></dc:title></cc:Work></rdf:RDF></metadata><defs
     id="defs3974" /><sodipodi:namedview
     pagecolor="#ffffff"
     bordercolor="#666666"
     borderopacity="1"
     objecttolerance="10"
     gridtolerance="10"
     guidetolerance="10"
     inkscape:pageopacity="0"
     inkscape:pageshadow="2"
     inkscape:window-width="640"
     inkscape:window-height="480"
     id="namedview3972"
     showgrid="false"
     inkscape:zoom="0.1033792"
     inkscape:cx="1725.1129"
     inkscape:cy="3568.3984"
     inkscape:window-x="0"
     inkscape:window-y="0"
     inkscape:window-maximized="0"
     inkscape:current-layer="g3978" /><g
     id="g3978"
     inkscape:groupmode="layer"
     inkscape:label="seat_back"
     transform="matrix(1.25,0,0,-1.25,0,4322.8375)"><path
       inkscape:connector-curvature="0"
       id="path3982"
       style="fill:none;stroke:#000000;stroke-width:0.70899999;stroke-linecap:round;stroke-linejoin:round;stroke-miterlimit:10;stroke-opacity:1;stroke-dasharray:none"
       d="m 1178.8,2978 3.7,-42.3 m -46.1,38.7 42.4,3.6 m -39,-42.3 -3.4,38.7 m -890.5,-38.7 893.9,0 m -890.6,38.7 -3.3,-38.7 m -39,42.3 42.3,-3.6 m -46,-38.7 3.7,42.3 m -74.6,-42.3 70.9,0 m -121,50.1 50.1,-50.1 m -8.1,370.6 -42,-320.5 m 115.2,376.7 -73.2,-56.2 m 1073.1,56.2 -999.9,0 m 1065.2,-65.3 -65.3,65.3 m 105.4,-370.6 -40.1,305.3 m -3.1,-361.5 43.2,56.2 m -120.2,-56.2 77,0 m -875.5,269.1 29.6,29.7 m -29.6,-29.7 -3,-70.1 m 25.9,-28.3 -25.9,28.3 m 25.9,-28.3 570.7,0 m 27.1,27.2 -27.1,-27.2 m 27.1,27.2 -3.1,72.5 m -30.9,28.4 -557.1,0 m -184.4,0 -10.8,-124.4 m 0,0 42.3,-3.7 m 0,0 10.9,124.4 m 0,0 -42.4,3.7 m 938.1,-124.4 -10.9,124.4 m 0,0 -42.3,-3.7 m 0,0 10.8,-124.4 m 0,0 42.4,3.7 m -196.6,124.4 30.9,-28.4" /></g></svg>