<?xml version="1.0" encoding="UTF-8" standalone="no"?>
<!-- Created with Inkscape (http://www.inkscape.org/) -->

<svg
   xmlns:dc="http://purl.org/dc/elements/1.1/"
   xmlns:cc="http://creativecommons.org/ns#"
   xmlns:rdf="http://www.w3.org/1999/02/22-rdf-syntax-ns#"
   xmlns:svg="http://www.w3.org/2000/svg"
   xmlns="http://www.w3.org/2000/svg"
   xmlns:sodipodi="http://sodipodi.sourceforge.net/DTD/sodipodi-0.dtd"
   xmlns:inkscape="http://www.inkscape.org/namespaces/inkscape"
   id="svg4020"
   version="1.1"
   inkscape:version="0.48.4 r9939"
   width="8645.675"
   height="4322.8375"
   xml:space="preserve"
   sodipodi:docname="side_panel.pdf"><metadata
     id="metadata4026"><rdf:RDF><cc:Work
         rdf:about=""><dc:format>image/svg+xml</dc:format><dc:type
           rdf:resource="http://purl.org/dc/dcmitype/StillImage" /><dc:title></dc:title></cc:Work></rdf:RDF></metadata><defs
     id="defs4024" /><sodipodi:namedview
     pagecolor="#ffffff"
     bordercolor="#666666"
     borderopacity="1"
     objecttolerance="10"
     gridtolerance="10"
     guidetolerance="10"
     inkscape:pageopacity="0"
     inkscape:pageshadow="2"
     inkscape:window-width="640"
     inkscape:window-height="480"
     id="namedview4022"
     showgrid="false"
     inkscape:zoom="0.11313708"
     inkscape:cx="1762.2526"
     inkscape:cy="2722.98"
     inkscape:window-x="0"
     inkscape:window-y="0"
     inkscape:window-maximized="0"
     inkscape:current-layer="g4028" /><g
     id="g4028"
     inkscape:groupmode="layer"
     inkscape:label="side_panel"
     transform="matrix(1.25,0,0,-1.25,0,4322.8375)"><path
       inkscape:connector-curvature="0"
       id="path4032"
       style="fill:none;stroke:#000000;stroke-width:0.70899999;stroke-linecap:round;stroke-linejoin:round;stroke-miterlimit:10;stroke-opacity:1;stroke-dasharray:none"
       d="m 1681.9,1313.9 42.4,3.7 m -43.9,-157 57.6,0 m -336.8,913.4 70.1,-49 m -987.6,-134.8 70.8,88.8 m -256.2,-818.4 68.8,68.9 m -112.6,89.3 42.3,-3.7 m 0,0 13.9,158.2 m 0,0 -42.4,3.7 m 13.5,154.5 42.7,0 m 0,0 13.9,158.2 m 0,0 -42.4,3.7 m 13.8,158.2 42.4,-3.7 m 0,0 15.9,181.8 m 0,0 -42.4,3.7 m 81.5,1021.4 -62.1,-62.1 m 160.3,-54.6 -10.9,124.4 m -25.8,-127.6 36.7,3.2 m 55.9,-739.6 -42.3,-1.1 m 0,0 1.2,-46.4 m 949.9,60.3 -0.1,-37 m 125.9,40.1 -125.8,-3.1 m 127.6,-33.9 -1.8,37 m 59.7,-211.8 -42.3,-3.7 m 0,0 13.7,-157 m 0,0 42.4,3.7 m 13.7,-157 -42.4,-3.7 m 0,0 13.8,-157 m 56.1,-153.3 -42.4,-3.7 m 0,0 13.7,-157 m -27.4,314 42.3,3.7 m -41.2,471 -15.4,175.9 M 1470,2274.3 520.2,2251 m 41.1,47.5 -52.9,606.8 m 0,0 -28.2,-2.5 m 0,0 -11.5,132.1 m 25.8,127.6 -87.3,-7.7 m -62.1,-62.1 -0.3,-741.2 m -63,-720 -13.5,-154.5 m -27.7,-316.4 57.7,0 m 68.8,68.9 116.6,660.7 m 70.8,88.8 846.7,95 m 70.1,-49 140.2,-795.5 m 126.5,-68.9 -13.7,157 m -84.1,960.9 -42.5,-1.1 M 344.8,2351.5 325.7,2133.4 M 309.8,1951.6 296,1793.4 m -41.5,-474.6 -13.9,-158.2 m 1442.5,628 -13.7,157 m 41.2,-471 -13.8,157 m -85.3,-402.1 68.9,-68.9" /></g></svg>